<?xml version="1.0" encoding="utf-8" standalone="no"?>
<!DOCTYPE svg PUBLIC "-//W3C//DTD SVG 1.1//EN"
  "http://www.w3.org/Graphics/SVG/1.1/DTD/svg11.dtd">
<svg xmlns:xlink="http://www.w3.org/1999/xlink" width="432pt" height="288pt" viewBox="0 0 432 288" xmlns="http://www.w3.org/2000/svg" version="1.1">
 <metadata>
  <rdf:RDF xmlns:dc="http://purl.org/dc/elements/1.1/" xmlns:cc="http://creativecommons.org/ns#" xmlns:rdf="http://www.w3.org/1999/02/22-rdf-syntax-ns#">
   <cc:Work>
    <dc:type rdf:resource="http://purl.org/dc/dcmitype/StillImage"/>
    <dc:date>2022-04-24T17:26:22.674960</dc:date>
    <dc:format>image/svg+xml</dc:format>
    <dc:creator>
     <cc:Agent>
      <dc:title>Matplotlib v3.5.1, https://matplotlib.org/</dc:title>
     </cc:Agent>
    </dc:creator>
   </cc:Work>
  </rdf:RDF>
 </metadata>
 <defs>
  <style type="text/css">*{stroke-linejoin: round; stroke-linecap: butt}</style>
 </defs>
 <g id="figure_1">
  <g id="patch_1">
   <path d="M 0 288 
L 432 288 
L 432 0 
L 0 0 
L 0 288 
z
" style="fill: none"/>
  </g>
  <g id="axes_1">
   <g id="patch_2">
    <path d="M 54 252 
L 388.8 252 
L 388.8 34.56 
L 54 34.56 
z
" style="fill: #ffffff"/>
   </g>
   <g id="patch_3">
    <path d="M 69.218182 252 
L 74.01131 252 
L 74.01131 223.973996 
L 69.218182 223.973996 
z
" clip-path="url(#p4a5984b0d2)" style="fill: #1f77b4"/>
   </g>
   <g id="patch_4">
    <path d="M 75.209592 252 
L 80.00272 252 
L 80.00272 217.93969 
L 75.209592 217.93969 
z
" clip-path="url(#p4a5984b0d2)" style="fill: #1f77b4"/>
   </g>
   <g id="patch_5">
    <path d="M 81.201002 252 
L 85.99413 252 
L 85.99413 211.018007 
L 81.201002 211.018007 
z
" clip-path="url(#p4a5984b0d2)" style="fill: #1f77b4"/>
   </g>
   <g id="patch_6">
    <path d="M 87.192412 252 
L 91.98554 252 
L 91.98554 203.180355 
L 87.192412 203.180355 
z
" clip-path="url(#p4a5984b0d2)" style="fill: #1f77b4"/>
   </g>
   <g id="patch_7">
    <path d="M 93.183822 252 
L 97.976951 252 
L 97.976951 194.422447 
L 93.183822 194.422447 
z
" clip-path="url(#p4a5984b0d2)" style="fill: #1f77b4"/>
   </g>
   <g id="patch_8">
    <path d="M 99.175233 252 
L 103.968361 252 
L 103.968361 184.769112 
L 99.175233 184.769112 
z
" clip-path="url(#p4a5984b0d2)" style="fill: #1f77b4"/>
   </g>
   <g id="patch_9">
    <path d="M 105.166643 252 
L 109.959771 252 
L 109.959771 174.278433 
L 105.166643 174.278433 
z
" clip-path="url(#p4a5984b0d2)" style="fill: #1f77b4"/>
   </g>
   <g id="patch_10">
    <path d="M 111.158053 252 
L 115.951181 252 
L 115.951181 163.044808 
L 111.158053 163.044808 
z
" clip-path="url(#p4a5984b0d2)" style="fill: #1f77b4"/>
   </g>
   <g id="patch_11">
    <path d="M 117.149463 252 
L 121.942591 252 
L 121.942591 151.200561 
L 117.149463 151.200561 
z
" clip-path="url(#p4a5984b0d2)" style="fill: #1f77b4"/>
   </g>
   <g id="patch_12">
    <path d="M 123.140873 252 
L 127.934001 252 
L 127.934001 138.915787 
L 123.140873 138.915787 
z
" clip-path="url(#p4a5984b0d2)" style="fill: #1f77b4"/>
   </g>
   <g id="patch_13">
    <path d="M 129.132283 252 
L 133.925412 252 
L 133.925412 126.396165 
L 129.132283 126.396165 
z
" clip-path="url(#p4a5984b0d2)" style="fill: #1f77b4"/>
   </g>
   <g id="patch_14">
    <path d="M 135.123694 252 
L 139.916822 252 
L 139.916822 113.878631 
L 135.123694 113.878631 
z
" clip-path="url(#p4a5984b0d2)" style="fill: #1f77b4"/>
   </g>
   <g id="patch_15">
    <path d="M 141.115104 252 
L 145.908232 252 
L 145.908232 101.624908 
L 141.115104 101.624908 
z
" clip-path="url(#p4a5984b0d2)" style="fill: #1f77b4"/>
   </g>
   <g id="patch_16">
    <path d="M 147.106514 252 
L 151.899642 252 
L 151.899642 89.913072 
L 147.106514 89.913072 
z
" clip-path="url(#p4a5984b0d2)" style="fill: #1f77b4"/>
   </g>
   <g id="patch_17">
    <path d="M 153.097924 252 
L 157.891052 252 
L 157.891052 79.027472 
L 153.097924 79.027472 
z
" clip-path="url(#p4a5984b0d2)" style="fill: #1f77b4"/>
   </g>
   <g id="patch_18">
    <path d="M 159.089334 252 
L 163.882462 252 
L 163.882462 69.247499 
L 159.089334 69.247499 
z
" clip-path="url(#p4a5984b0d2)" style="fill: #1f77b4"/>
   </g>
   <g id="patch_19">
    <path d="M 165.080744 252 
L 169.873873 252 
L 169.873873 60.835792 
L 165.080744 60.835792 
z
" clip-path="url(#p4a5984b0d2)" style="fill: #1f77b4"/>
   </g>
   <g id="patch_20">
    <path d="M 171.072155 252 
L 175.865283 252 
L 175.865283 54.026579 
L 171.072155 54.026579 
z
" clip-path="url(#p4a5984b0d2)" style="fill: #1f77b4"/>
   </g>
   <g id="patch_21">
    <path d="M 177.063565 252 
L 181.856693 252 
L 181.856693 49.014858 
L 177.063565 49.014858 
z
" clip-path="url(#p4a5984b0d2)" style="fill: #1f77b4"/>
   </g>
   <g id="patch_22">
    <path d="M 183.054975 252 
L 187.848103 252 
L 187.848103 45.94713 
L 183.054975 45.94713 
z
" clip-path="url(#p4a5984b0d2)" style="fill: #1f77b4"/>
   </g>
   <g id="patch_23">
    <path d="M 189.046385 252 
L 193.839513 252 
L 193.839513 44.914286 
L 189.046385 44.914286 
z
" clip-path="url(#p4a5984b0d2)" style="fill: #1f77b4"/>
   </g>
   <g id="patch_24">
    <path d="M 195.037795 252 
L 199.830923 252 
L 199.830923 45.94713 
L 195.037795 45.94713 
z
" clip-path="url(#p4a5984b0d2)" style="fill: #1f77b4"/>
   </g>
   <g id="patch_25">
    <path d="M 201.029205 252 
L 205.822334 252 
L 205.822334 49.014858 
L 201.029205 49.014858 
z
" clip-path="url(#p4a5984b0d2)" style="fill: #1f77b4"/>
   </g>
   <g id="patch_26">
    <path d="M 207.020616 252 
L 211.813744 252 
L 211.813744 54.026579 
L 207.020616 54.026579 
z
" clip-path="url(#p4a5984b0d2)" style="fill: #1f77b4"/>
   </g>
   <g id="patch_27">
    <path d="M 213.012026 252 
L 217.805154 252 
L 217.805154 60.835792 
L 213.012026 60.835792 
z
" clip-path="url(#p4a5984b0d2)" style="fill: #1f77b4"/>
   </g>
   <g id="patch_28">
    <path d="M 219.003436 252 
L 223.796564 252 
L 223.796564 69.247499 
L 219.003436 69.247499 
z
" clip-path="url(#p4a5984b0d2)" style="fill: #1f77b4"/>
   </g>
   <g id="patch_29">
    <path d="M 224.994846 252 
L 229.787974 252 
L 229.787974 79.027472 
L 224.994846 79.027472 
z
" clip-path="url(#p4a5984b0d2)" style="fill: #1f77b4"/>
   </g>
   <g id="patch_30">
    <path d="M 230.986256 252 
L 235.779384 252 
L 235.779384 89.913072 
L 230.986256 89.913072 
z
" clip-path="url(#p4a5984b0d2)" style="fill: #1f77b4"/>
   </g>
   <g id="patch_31">
    <path d="M 236.977666 252 
L 241.770795 252 
L 241.770795 101.624908 
L 236.977666 101.624908 
z
" clip-path="url(#p4a5984b0d2)" style="fill: #1f77b4"/>
   </g>
   <g id="patch_32">
    <path d="M 242.969077 252 
L 247.762205 252 
L 247.762205 113.878631 
L 242.969077 113.878631 
z
" clip-path="url(#p4a5984b0d2)" style="fill: #1f77b4"/>
   </g>
   <g id="patch_33">
    <path d="M 248.960487 252 
L 253.753615 252 
L 253.753615 126.396165 
L 248.960487 126.396165 
z
" clip-path="url(#p4a5984b0d2)" style="fill: #1f77b4"/>
   </g>
   <g id="patch_34">
    <path d="M 254.951897 252 
L 259.745025 252 
L 259.745025 138.915787 
L 254.951897 138.915787 
z
" clip-path="url(#p4a5984b0d2)" style="fill: #1f77b4"/>
   </g>
   <g id="patch_35">
    <path d="M 260.943307 252 
L 265.736435 252 
L 265.736435 151.200561 
L 260.943307 151.200561 
z
" clip-path="url(#p4a5984b0d2)" style="fill: #1f77b4"/>
   </g>
   <g id="patch_36">
    <path d="M 266.934717 252 
L 271.727845 252 
L 271.727845 163.044808 
L 266.934717 163.044808 
z
" clip-path="url(#p4a5984b0d2)" style="fill: #1f77b4"/>
   </g>
   <g id="patch_37">
    <path d="M 272.926127 252 
L 277.719256 252 
L 277.719256 174.278433 
L 272.926127 174.278433 
z
" clip-path="url(#p4a5984b0d2)" style="fill: #1f77b4"/>
   </g>
   <g id="patch_38">
    <path d="M 278.917538 252 
L 283.710666 252 
L 283.710666 184.769112 
L 278.917538 184.769112 
z
" clip-path="url(#p4a5984b0d2)" style="fill: #1f77b4"/>
   </g>
   <g id="patch_39">
    <path d="M 284.908948 252 
L 289.702076 252 
L 289.702076 194.422447 
L 284.908948 194.422447 
z
" clip-path="url(#p4a5984b0d2)" style="fill: #1f77b4"/>
   </g>
   <g id="patch_40">
    <path d="M 290.900358 252 
L 295.693486 252 
L 295.693486 203.180355 
L 290.900358 203.180355 
z
" clip-path="url(#p4a5984b0d2)" style="fill: #1f77b4"/>
   </g>
   <g id="patch_41">
    <path d="M 296.891768 252 
L 301.684896 252 
L 301.684896 211.018007 
L 296.891768 211.018007 
z
" clip-path="url(#p4a5984b0d2)" style="fill: #1f77b4"/>
   </g>
   <g id="patch_42">
    <path d="M 302.883178 252 
L 307.676306 252 
L 307.676306 217.93969 
L 302.883178 217.93969 
z
" clip-path="url(#p4a5984b0d2)" style="fill: #1f77b4"/>
   </g>
   <g id="patch_43">
    <path d="M 308.874588 252 
L 313.667717 252 
L 313.667717 223.973996 
L 308.874588 223.973996 
z
" clip-path="url(#p4a5984b0d2)" style="fill: #1f77b4"/>
   </g>
   <g id="patch_44">
    <path d="M 314.865999 252 
L 319.659127 252 
L 319.659127 229.168691 
L 314.865999 229.168691 
z
" clip-path="url(#p4a5984b0d2)" style="fill: #1f77b4"/>
   </g>
   <g id="patch_45">
    <path d="M 320.857409 252 
L 325.650537 252 
L 325.650537 233.585603 
L 320.857409 233.585603 
z
" clip-path="url(#p4a5984b0d2)" style="fill: #1f77b4"/>
   </g>
   <g id="patch_46">
    <path d="M 326.848819 252 
L 331.641947 252 
L 331.641947 237.295806 
L 326.848819 237.295806 
z
" clip-path="url(#p4a5984b0d2)" style="fill: #1f77b4"/>
   </g>
   <g id="patch_47">
    <path d="M 332.840229 252 
L 337.633357 252 
L 337.633357 240.375293 
L 332.840229 240.375293 
z
" clip-path="url(#p4a5984b0d2)" style="fill: #1f77b4"/>
   </g>
   <g id="patch_48">
    <path d="M 338.831639 252 
L 343.624767 252 
L 343.624767 242.901289 
L 338.831639 242.901289 
z
" clip-path="url(#p4a5984b0d2)" style="fill: #1f77b4"/>
   </g>
   <g id="patch_49">
    <path d="M 344.823049 252 
L 349.616178 252 
L 349.616178 244.949259 
L 344.823049 244.949259 
z
" clip-path="url(#p4a5984b0d2)" style="fill: #1f77b4"/>
   </g>
   <g id="patch_50">
    <path d="M 350.81446 252 
L 355.607588 252 
L 355.607588 246.590629 
L 350.81446 246.590629 
z
" clip-path="url(#p4a5984b0d2)" style="fill: #1f77b4"/>
   </g>
   <g id="patch_51">
    <path d="M 356.80587 252 
L 361.598998 252 
L 361.598998 247.891193 
L 356.80587 247.891193 
z
" clip-path="url(#p4a5984b0d2)" style="fill: #1f77b4"/>
   </g>
   <g id="patch_52">
    <path d="M 362.79728 252 
L 367.590408 252 
L 367.590408 248.910118 
L 362.79728 248.910118 
z
" clip-path="url(#p4a5984b0d2)" style="fill: #1f77b4"/>
   </g>
   <g id="patch_53">
    <path d="M 368.78869 252 
L 373.581818 252 
L 373.581818 249.699486 
L 368.78869 249.699486 
z
" clip-path="url(#p4a5984b0d2)" style="fill: #1f77b4"/>
   </g>
   <g id="matplotlib.axis_1">
    <g id="xtick_1">
     <g id="line2d_1">
      <defs>
       <path id="m4f6d6649e6" d="M 0 0 
L 0 3.5 
" style="stroke: #000000; stroke-width: 0.8"/>
      </defs>
      <g>
       <use xlink:href="#m4f6d6649e6" x="71.614746" y="252" style="stroke: #000000; stroke-width: 0.8"/>
      </g>
     </g>
     <g id="text_1">
      <!-- 0 -->
      <g transform="translate(68.433496 266.598437)scale(0.1 -0.1)">
       <defs>
        <path id="DejaVuSans-30" d="M 2034 4250 
Q 1547 4250 1301 3770 
Q 1056 3291 1056 2328 
Q 1056 1369 1301 889 
Q 1547 409 2034 409 
Q 2525 409 2770 889 
Q 3016 1369 3016 2328 
Q 3016 3291 2770 3770 
Q 2525 4250 2034 4250 
z
M 2034 4750 
Q 2819 4750 3233 4129 
Q 3647 3509 3647 2328 
Q 3647 1150 3233 529 
Q 2819 -91 2034 -91 
Q 1250 -91 836 529 
Q 422 1150 422 2328 
Q 422 3509 836 4129 
Q 1250 4750 2034 4750 
z
" transform="scale(0.015625)"/>
       </defs>
       <use xlink:href="#DejaVuSans-30"/>
      </g>
     </g>
    </g>
    <g id="xtick_2">
     <g id="line2d_2">
      <g>
       <use xlink:href="#m4f6d6649e6" x="131.528848" y="252" style="stroke: #000000; stroke-width: 0.8"/>
      </g>
     </g>
     <g id="text_2">
      <!-- 10 -->
      <g transform="translate(125.166348 266.598437)scale(0.1 -0.1)">
       <defs>
        <path id="DejaVuSans-31" d="M 794 531 
L 1825 531 
L 1825 4091 
L 703 3866 
L 703 4441 
L 1819 4666 
L 2450 4666 
L 2450 531 
L 3481 531 
L 3481 0 
L 794 0 
L 794 531 
z
" transform="scale(0.015625)"/>
       </defs>
       <use xlink:href="#DejaVuSans-31"/>
       <use xlink:href="#DejaVuSans-30" x="63.623047"/>
      </g>
     </g>
    </g>
    <g id="xtick_3">
     <g id="line2d_3">
      <g>
       <use xlink:href="#m4f6d6649e6" x="191.442949" y="252" style="stroke: #000000; stroke-width: 0.8"/>
      </g>
     </g>
     <g id="text_3">
      <!-- 20 -->
      <g transform="translate(185.080449 266.598437)scale(0.1 -0.1)">
       <defs>
        <path id="DejaVuSans-32" d="M 1228 531 
L 3431 531 
L 3431 0 
L 469 0 
L 469 531 
Q 828 903 1448 1529 
Q 2069 2156 2228 2338 
Q 2531 2678 2651 2914 
Q 2772 3150 2772 3378 
Q 2772 3750 2511 3984 
Q 2250 4219 1831 4219 
Q 1534 4219 1204 4116 
Q 875 4013 500 3803 
L 500 4441 
Q 881 4594 1212 4672 
Q 1544 4750 1819 4750 
Q 2544 4750 2975 4387 
Q 3406 4025 3406 3419 
Q 3406 3131 3298 2873 
Q 3191 2616 2906 2266 
Q 2828 2175 2409 1742 
Q 1991 1309 1228 531 
z
" transform="scale(0.015625)"/>
       </defs>
       <use xlink:href="#DejaVuSans-32"/>
       <use xlink:href="#DejaVuSans-30" x="63.623047"/>
      </g>
     </g>
    </g>
    <g id="xtick_4">
     <g id="line2d_4">
      <g>
       <use xlink:href="#m4f6d6649e6" x="251.357051" y="252" style="stroke: #000000; stroke-width: 0.8"/>
      </g>
     </g>
     <g id="text_4">
      <!-- 30 -->
      <g transform="translate(244.994551 266.598437)scale(0.1 -0.1)">
       <defs>
        <path id="DejaVuSans-33" d="M 2597 2516 
Q 3050 2419 3304 2112 
Q 3559 1806 3559 1356 
Q 3559 666 3084 287 
Q 2609 -91 1734 -91 
Q 1441 -91 1130 -33 
Q 819 25 488 141 
L 488 750 
Q 750 597 1062 519 
Q 1375 441 1716 441 
Q 2309 441 2620 675 
Q 2931 909 2931 1356 
Q 2931 1769 2642 2001 
Q 2353 2234 1838 2234 
L 1294 2234 
L 1294 2753 
L 1863 2753 
Q 2328 2753 2575 2939 
Q 2822 3125 2822 3475 
Q 2822 3834 2567 4026 
Q 2313 4219 1838 4219 
Q 1578 4219 1281 4162 
Q 984 4106 628 3988 
L 628 4550 
Q 988 4650 1302 4700 
Q 1616 4750 1894 4750 
Q 2613 4750 3031 4423 
Q 3450 4097 3450 3541 
Q 3450 3153 3228 2886 
Q 3006 2619 2597 2516 
z
" transform="scale(0.015625)"/>
       </defs>
       <use xlink:href="#DejaVuSans-33"/>
       <use xlink:href="#DejaVuSans-30" x="63.623047"/>
      </g>
     </g>
    </g>
    <g id="xtick_5">
     <g id="line2d_5">
      <g>
       <use xlink:href="#m4f6d6649e6" x="311.271152" y="252" style="stroke: #000000; stroke-width: 0.8"/>
      </g>
     </g>
     <g id="text_5">
      <!-- 40 -->
      <g transform="translate(304.908652 266.598437)scale(0.1 -0.1)">
       <defs>
        <path id="DejaVuSans-34" d="M 2419 4116 
L 825 1625 
L 2419 1625 
L 2419 4116 
z
M 2253 4666 
L 3047 4666 
L 3047 1625 
L 3713 1625 
L 3713 1100 
L 3047 1100 
L 3047 0 
L 2419 0 
L 2419 1100 
L 313 1100 
L 313 1709 
L 2253 4666 
z
" transform="scale(0.015625)"/>
       </defs>
       <use xlink:href="#DejaVuSans-34"/>
       <use xlink:href="#DejaVuSans-30" x="63.623047"/>
      </g>
     </g>
    </g>
    <g id="xtick_6">
     <g id="line2d_6">
      <g>
       <use xlink:href="#m4f6d6649e6" x="371.185254" y="252" style="stroke: #000000; stroke-width: 0.8"/>
      </g>
     </g>
     <g id="text_6">
      <!-- 50 -->
      <g transform="translate(364.822754 266.598437)scale(0.1 -0.1)">
       <defs>
        <path id="DejaVuSans-35" d="M 691 4666 
L 3169 4666 
L 3169 4134 
L 1269 4134 
L 1269 2991 
Q 1406 3038 1543 3061 
Q 1681 3084 1819 3084 
Q 2600 3084 3056 2656 
Q 3513 2228 3513 1497 
Q 3513 744 3044 326 
Q 2575 -91 1722 -91 
Q 1428 -91 1123 -41 
Q 819 9 494 109 
L 494 744 
Q 775 591 1075 516 
Q 1375 441 1709 441 
Q 2250 441 2565 725 
Q 2881 1009 2881 1497 
Q 2881 1984 2565 2268 
Q 2250 2553 1709 2553 
Q 1456 2553 1204 2497 
Q 953 2441 691 2322 
L 691 4666 
z
" transform="scale(0.015625)"/>
       </defs>
       <use xlink:href="#DejaVuSans-35"/>
       <use xlink:href="#DejaVuSans-30" x="63.623047"/>
      </g>
     </g>
    </g>
   </g>
   <g id="matplotlib.axis_2">
    <g id="ytick_1">
     <g id="line2d_7">
      <defs>
       <path id="m3b5df5856d" d="M 0 0 
L -3.5 0 
" style="stroke: #000000; stroke-width: 0.8"/>
      </defs>
      <g>
       <use xlink:href="#m3b5df5856d" x="54" y="252" style="stroke: #000000; stroke-width: 0.8"/>
      </g>
     </g>
     <g id="text_7">
      <!-- 0.000 -->
      <g transform="translate(18.371875 255.799219)scale(0.1 -0.1)">
       <defs>
        <path id="DejaVuSans-2e" d="M 684 794 
L 1344 794 
L 1344 0 
L 684 0 
L 684 794 
z
" transform="scale(0.015625)"/>
       </defs>
       <use xlink:href="#DejaVuSans-30"/>
       <use xlink:href="#DejaVuSans-2e" x="63.623047"/>
       <use xlink:href="#DejaVuSans-30" x="95.410156"/>
       <use xlink:href="#DejaVuSans-30" x="159.033203"/>
       <use xlink:href="#DejaVuSans-30" x="222.65625"/>
      </g>
     </g>
    </g>
    <g id="ytick_2">
     <g id="line2d_8">
      <g>
       <use xlink:href="#m3b5df5856d" x="54" y="226.597961" style="stroke: #000000; stroke-width: 0.8"/>
      </g>
     </g>
     <g id="text_8">
      <!-- 0.005 -->
      <g transform="translate(18.371875 230.39718)scale(0.1 -0.1)">
       <use xlink:href="#DejaVuSans-30"/>
       <use xlink:href="#DejaVuSans-2e" x="63.623047"/>
       <use xlink:href="#DejaVuSans-30" x="95.410156"/>
       <use xlink:href="#DejaVuSans-30" x="159.033203"/>
       <use xlink:href="#DejaVuSans-35" x="222.65625"/>
      </g>
     </g>
    </g>
    <g id="ytick_3">
     <g id="line2d_9">
      <g>
       <use xlink:href="#m3b5df5856d" x="54" y="201.195923" style="stroke: #000000; stroke-width: 0.8"/>
      </g>
     </g>
     <g id="text_9">
      <!-- 0.010 -->
      <g transform="translate(18.371875 204.995141)scale(0.1 -0.1)">
       <use xlink:href="#DejaVuSans-30"/>
       <use xlink:href="#DejaVuSans-2e" x="63.623047"/>
       <use xlink:href="#DejaVuSans-30" x="95.410156"/>
       <use xlink:href="#DejaVuSans-31" x="159.033203"/>
       <use xlink:href="#DejaVuSans-30" x="222.65625"/>
      </g>
     </g>
    </g>
    <g id="ytick_4">
     <g id="line2d_10">
      <g>
       <use xlink:href="#m3b5df5856d" x="54" y="175.793884" style="stroke: #000000; stroke-width: 0.8"/>
      </g>
     </g>
     <g id="text_10">
      <!-- 0.015 -->
      <g transform="translate(18.371875 179.593103)scale(0.1 -0.1)">
       <use xlink:href="#DejaVuSans-30"/>
       <use xlink:href="#DejaVuSans-2e" x="63.623047"/>
       <use xlink:href="#DejaVuSans-30" x="95.410156"/>
       <use xlink:href="#DejaVuSans-31" x="159.033203"/>
       <use xlink:href="#DejaVuSans-35" x="222.65625"/>
      </g>
     </g>
    </g>
    <g id="ytick_5">
     <g id="line2d_11">
      <g>
       <use xlink:href="#m3b5df5856d" x="54" y="150.391845" style="stroke: #000000; stroke-width: 0.8"/>
      </g>
     </g>
     <g id="text_11">
      <!-- 0.020 -->
      <g transform="translate(18.371875 154.191064)scale(0.1 -0.1)">
       <use xlink:href="#DejaVuSans-30"/>
       <use xlink:href="#DejaVuSans-2e" x="63.623047"/>
       <use xlink:href="#DejaVuSans-30" x="95.410156"/>
       <use xlink:href="#DejaVuSans-32" x="159.033203"/>
       <use xlink:href="#DejaVuSans-30" x="222.65625"/>
      </g>
     </g>
    </g>
    <g id="ytick_6">
     <g id="line2d_12">
      <g>
       <use xlink:href="#m3b5df5856d" x="54" y="124.989806" style="stroke: #000000; stroke-width: 0.8"/>
      </g>
     </g>
     <g id="text_12">
      <!-- 0.025 -->
      <g transform="translate(18.371875 128.789025)scale(0.1 -0.1)">
       <use xlink:href="#DejaVuSans-30"/>
       <use xlink:href="#DejaVuSans-2e" x="63.623047"/>
       <use xlink:href="#DejaVuSans-30" x="95.410156"/>
       <use xlink:href="#DejaVuSans-32" x="159.033203"/>
       <use xlink:href="#DejaVuSans-35" x="222.65625"/>
      </g>
     </g>
    </g>
    <g id="ytick_7">
     <g id="line2d_13">
      <g>
       <use xlink:href="#m3b5df5856d" x="54" y="99.587768" style="stroke: #000000; stroke-width: 0.8"/>
      </g>
     </g>
     <g id="text_13">
      <!-- 0.030 -->
      <g transform="translate(18.371875 103.386986)scale(0.1 -0.1)">
       <use xlink:href="#DejaVuSans-30"/>
       <use xlink:href="#DejaVuSans-2e" x="63.623047"/>
       <use xlink:href="#DejaVuSans-30" x="95.410156"/>
       <use xlink:href="#DejaVuSans-33" x="159.033203"/>
       <use xlink:href="#DejaVuSans-30" x="222.65625"/>
      </g>
     </g>
    </g>
    <g id="ytick_8">
     <g id="line2d_14">
      <g>
       <use xlink:href="#m3b5df5856d" x="54" y="74.185729" style="stroke: #000000; stroke-width: 0.8"/>
      </g>
     </g>
     <g id="text_14">
      <!-- 0.035 -->
      <g transform="translate(18.371875 77.984948)scale(0.1 -0.1)">
       <use xlink:href="#DejaVuSans-30"/>
       <use xlink:href="#DejaVuSans-2e" x="63.623047"/>
       <use xlink:href="#DejaVuSans-30" x="95.410156"/>
       <use xlink:href="#DejaVuSans-33" x="159.033203"/>
       <use xlink:href="#DejaVuSans-35" x="222.65625"/>
      </g>
     </g>
    </g>
    <g id="ytick_9">
     <g id="line2d_15">
      <g>
       <use xlink:href="#m3b5df5856d" x="54" y="48.78369" style="stroke: #000000; stroke-width: 0.8"/>
      </g>
     </g>
     <g id="text_15">
      <!-- 0.040 -->
      <g transform="translate(18.371875 52.582909)scale(0.1 -0.1)">
       <use xlink:href="#DejaVuSans-30"/>
       <use xlink:href="#DejaVuSans-2e" x="63.623047"/>
       <use xlink:href="#DejaVuSans-30" x="95.410156"/>
       <use xlink:href="#DejaVuSans-34" x="159.033203"/>
       <use xlink:href="#DejaVuSans-30" x="222.65625"/>
      </g>
     </g>
    </g>
   </g>
   <g id="patch_54">
    <path d="M 54 252 
L 54 34.56 
" style="fill: none; stroke: #000000; stroke-width: 0.8; stroke-linejoin: miter; stroke-linecap: square"/>
   </g>
   <g id="patch_55">
    <path d="M 388.8 252 
L 388.8 34.56 
" style="fill: none; stroke: #000000; stroke-width: 0.8; stroke-linejoin: miter; stroke-linecap: square"/>
   </g>
   <g id="patch_56">
    <path d="M 54 252 
L 388.8 252 
" style="fill: none; stroke: #000000; stroke-width: 0.8; stroke-linejoin: miter; stroke-linecap: square"/>
   </g>
   <g id="patch_57">
    <path d="M 54 34.56 
L 388.8 34.56 
" style="fill: none; stroke: #000000; stroke-width: 0.8; stroke-linejoin: miter; stroke-linecap: square"/>
   </g>
  </g>
 </g>
 <defs>
  <clipPath id="p4a5984b0d2">
   <rect x="54" y="34.56" width="334.8" height="217.44"/>
  </clipPath>
 </defs>
</svg>
